<svg id="圖層_1" data-name="圖層 1" xmlns="http://www.w3.org/2000/svg" viewBox="0 0 761.96 2248.51"><defs><style>.cls-1,.cls-3{fill:none;stroke:#000;}.cls-1{stroke-miterlimit:10;stroke-width:14.13px;}.cls-2{fill:#06237c;}.cls-3{stroke-linecap:round;stroke-linejoin:round;stroke-width:8px;}.cls-4{fill:#fff;}</style></defs><rect class="cls-1" x="195.84" y="907.52" width="155" height="155" rx="4.71"/><rect class="cls-2" x="219.09" y="930.77" width="108.5" height="108.5" rx="3.3"/><line class="cls-3" x1="215.84" y1="878.54" x2="215.84" y2="907.54"/><line class="cls-3" x1="238.84" y1="878.54" x2="238.84" y2="907.54"/><line class="cls-3" x1="261.84" y1="878.54" x2="261.84" y2="907.54"/><line class="cls-3" x1="284.84" y1="878.54" x2="284.84" y2="907.54"/><line class="cls-3" x1="307.84" y1="878.54" x2="307.84" y2="907.54"/><line class="cls-3" x1="330.84" y1="878.54" x2="330.84" y2="907.54"/><polyline class="cls-3" points="215.84 26.58 215.84 782.91 238.84 803.91 238.84 892.91"/><polyline class="cls-3" points="261.85 898.91 261.85 789.59 236.84 765.91 236.84 724.91"/><line class="cls-3" x1="165.34" y1="1042.52" x2="194.34" y2="1042.52"/><line class="cls-3" x1="165.34" y1="1019.52" x2="194.34" y2="1019.52"/><line class="cls-3" x1="165.34" y1="996.52" x2="194.34" y2="996.52"/><line class="cls-3" x1="165.34" y1="973.52" x2="194.34" y2="973.52"/><line class="cls-3" x1="165.34" y1="950.52" x2="194.34" y2="950.52"/><line class="cls-3" x1="165.34" y1="927.52" x2="194.34" y2="927.52"/><polyline class="cls-3" points="22.83 1038.78 55.51 1038.78 55.51 1005.78 127.34 1005.78 127.34 973.78 186.34 973.78"/><polyline class="cls-3" points="194.34 950.52 116.34 950.52 85.34 984.62 42.09 984.62"/><line class="cls-3" x1="351.34" y1="1042.52" x2="380.34" y2="1042.52"/><line class="cls-3" x1="351.34" y1="1019.52" x2="380.34" y2="1019.52"/><line class="cls-3" x1="351.34" y1="996.52" x2="380.34" y2="996.52"/><line class="cls-3" x1="351.34" y1="973.52" x2="380.34" y2="973.52"/><line class="cls-3" x1="351.34" y1="950.52" x2="380.34" y2="950.52"/><line class="cls-3" x1="351.34" y1="927.52" x2="380.34" y2="927.52"/><polyline class="cls-3" points="355.35 996.52 434.35 996.52 434.35 947.39 466.63 947.39"/><polyline class="cls-3" points="361.35 973.52 410.54 973.52 410.54 919.49 757.96 919.49"/><line class="cls-3" x1="215.84" y1="1062.73" x2="215.84" y2="1091.73"/><line class="cls-3" x1="238.84" y1="1062.73" x2="238.84" y2="1113.25"/><line class="cls-3" x1="261.84" y1="1062.73" x2="261.84" y2="1091.73"/><line class="cls-3" x1="284.84" y1="1062.73" x2="284.84" y2="1091.73"/><line class="cls-3" x1="307.84" y1="1062.73" x2="307.84" y2="1091.73"/><line class="cls-3" x1="330.84" y1="1062.73" x2="330.84" y2="1091.73"/><polyline class="cls-3" points="215.84 1062.73 215.84 1149.7 237.84 1161.7 237.84 2222.67"/><path class="cls-4" d="M281.45,1027.68H268.68v-24H233.76V941.46h12.77V990.9h22.15V965h29.41a20.42,20.42,0,0,1,20.53,20.76c0,11.63-10.57,17.91-20.53,17.91H281.45Zm0-36.78h16.64c2,0,7.77-.94,7.77-5.14a7.63,7.63,0,0,0-7.77-8H281.45Z"/><circle class="cls-3" cx="479.62" cy="947.39" r="10"/><circle class="cls-3" cx="238.68" cy="2234.51" r="10"/><circle class="cls-3" cx="29.09" cy="983.95" r="10"/><circle class="cls-3" cx="239.64" cy="1124.94" r="10"/><circle class="cls-3" cx="14" cy="1037.5" r="10"/><circle class="cls-3" cx="237.35" cy="709.77" r="10"/><circle class="cls-3" cx="215.17" cy="14" r="10"/></svg>